# xmcd
#
# Track frame offsets: 
#        150
#        27268
#        57032
#        83203
#        101336
#        120227
#        155538
#        180246
#        211746
#        239679
#        264867
#        289387
#
# Disc length: 4118 seconds
#
# Revision: 0
# Processed by: cddbd v1.5.2PL0 Copyright (c) Steve Scherf et al.
# Submitted via: ExactAudioCopy v0.99pb5
#
DISCID=9410140c
DTITLE=The Notting Hillbillies - Live at the Hexagon Theatre 1990 - 2C
DTITLE=D
DYEAR=1990
DGENRE=Blues
TTITLE0=Tennessee blues
TTITLE1=Railroad worksong
TTITLE2=I think I love you too much
TTITLE3=Will you miss me
TTITLE4=Fixing to die
TTITLE5=Rainy rainy day
TTITLE6=Setting me up
TTITLE7=Mystery train
TTITLE8=Why worry
TTITLE9=Shake rattle and roll
TTITLE10=Feel like going home
TTITLE11=The next time I'm in town
EXTD=
EXTT0=
EXTT1=
EXTT2=
EXTT3=
EXTT4=
EXTT5=
EXTT6=
EXTT7=
EXTT8=
EXTT9=
EXTT10=
EXTT11=
PLAYORDER=
